Coordinates
version=1
nRows=14
nColumns=33
inDegrees=yes

Units are S.I. units (second, meters, Newtons, ...)
Angles are in degrees.

endheader
time	ground_thorax_rot_x	ground_thorax_rot_y	ground_thorax_rot_z	ground_thorax_tx	ground_thorax_ty	ground_thorax_tz	clav_prot_r	clav_elev_r	scapula_abduction_r	scapula_elevation_r	scapula_upward_rot_r	scapula_winging_r	shoulder_elv_r	plane_of_elev_r	axial_rot_r	elbow_flexion_r	pro_sup_r	wrist_flex_r	wrist_dev_r	clav_prot_l	clav_elev_l	scapula_abduction_l	scapula_elevation_l	scapula_upward_rot_l	scapula_winging_l	shoulder_elv_l	plane_of_elev_l	axial_rot_l	elbow_flexion_l	pro_sup_l	wrist_flex_l	wrist_dev_l
      3.17000000	     37.42213999	     11.94056143	     11.85215070	   -102.47718337	    774.33577490	      5.04201471	     11.13549983	     38.76812925	     45.00000000	     37.14510454	     -8.62601610	  -1893.43902972	  -4801.72289230	    151.15985652	   -120.05910382	   2530.11730775	     27.29664236	     18.05742780	     10.49927078	      5.39040123	    -45.00000000	    -43.98448631	     45.00000000	    -26.24221374	   1528.91272293	  -3340.41824481	    137.84315774	    158.93933678	   1448.64369199	     25.07523558	      7.75708519	    -19.05281744
      3.18000000	     37.52970774	     12.02316876	     11.90473933	   -103.96750021	    775.09972771	      4.88176713	     11.21910603	     38.86947652	     45.00000000	     37.38665940	     -8.87666504	  -1893.42278196	  -4801.66277421	    151.09704886	   -120.22716196	   2530.21703397	     27.17368750	     18.08788102	     10.44493751	      5.34165486	    -45.00000000	    -43.71622795	     45.00000000	    -26.63155182	   1528.95448969	  -3340.28996053	    137.81588720	    158.96140913	   1448.75381387	     24.83558031	      7.72410094	    -19.10102306
      3.19000000	     37.62928410	     12.08452213	     11.86894846	   -105.51800005	    775.91449184	      4.72834953	     11.29274199	     38.98972348	     45.00000000	     37.61494277	     -9.06932448	  -1893.42223161	  -4801.61251686	    151.04279726	   -120.35438089	   2530.28617268	     27.07946376	     18.11828239	     10.38632114	      5.27917537	    -45.00000000	    -43.45978102	     45.00000000	    -26.97588769	   1528.98919124	  -3340.09787048	    137.72621678	    158.95005775	   1448.86254055	     24.61917760	      7.67794325	    -19.14937427
      3.20000000	     37.74186691	     12.18244775	     11.93488526	   -107.12684797	    776.77996933	      4.58236041	     11.36890961	     39.12725198	     45.00000000	     37.85218113	     -9.35436826	  -1893.42490744	  -4801.52324768	    150.96793768	   -120.47725385	   2530.40947995	     26.99511494	     18.15782112	     10.30653229	      5.26623462	    -45.00000000	    -43.22265239	     45.00000000	    -27.31350222	   1529.06887577	  -3339.98968324	    137.72601709	    158.96658741	   1448.99679640	     24.40793918	      7.62577978	    -19.19527238
      3.21000000	     37.84882974	     12.27479571	     11.99582769	   -108.79914118	    777.69326394	      4.44517747	     11.45055299	     39.22497351	     45.00000000	     38.10563579	     -9.62479822	  -1893.42915544	  -4801.43660769	    150.91447372	   -120.63454987	   2530.52347611	     26.92371265	     18.20337843	     10.22757006	      5.24812139	    -45.00000000	    -42.97151320	     45.00000000	    -27.68325704	   1529.14516917	  -3339.88180095	    137.70503334	    158.98410656	   1449.11410039	     24.20613580	      7.55975539	    -19.23830224
      3.22000000	     37.97427857	     12.38599863	     12.08377259	   -110.54053087	    778.65323172	      4.31778371	     11.56733289	     39.45594205	     45.00000000	     38.39126246	     -9.98073257	  -1893.41976747	  -4801.34533723	    150.84348830	   -120.82205846	   2530.64315449	     26.85599385	     18.24440438	     10.12920594	      5.22960555	    -45.00000000	    -42.67236254	     45.00000000	    -28.10647943	   1529.18723196	  -3339.76220923	    137.69656034	    159.01306119	   1449.21930181	     24.01543876	      7.49277088	    -19.27700397
      3.23000000	     38.08830026	     12.42766829	     12.07827541	   -112.35466578	    779.65925715	      4.20098368	     11.65362348	     39.50184174	     45.00000000	     38.60722883	    -10.21363273	  -1893.41529074	  -4801.24215804	    150.75095200	   -121.00236877	   2530.74549297	     26.79478666	     18.29078811	     10.04035785	      5.15012710	    -45.00000000	    -42.40119251	     45.00000000	    -28.48538181	   1529.26588638	  -3339.53473054	    137.60207873	    158.99152981	   1449.33978442	     23.85156924	      7.42697579	    -19.33271110
      3.24000000	     38.39962895	     13.59138863	     13.96672261	   -114.24230029	    780.70837457	      4.09414234	     13.34336825	     40.29468760	     45.00000000	     39.70624265	    -14.16887819	  -1892.49557228	  -4800.91895018	    150.24268162	   -122.92587573	   2530.85911352	     26.37825392	     18.32050103	      9.98859591	      5.37174081	    -45.00000000	    -40.16046622	     45.00000000	    -32.87098322	   1528.48610642	  -3338.84880543	    137.34060019	    159.63497422	   1449.39021543	     23.25289476	      7.39798458	    -19.31672421
      3.25000000	     38.46007209	     13.23524260	     13.36116121	   -116.19474909	    781.80293499	      3.99537018	     12.62705862	     40.30988715	     45.00000000	     39.66748106	    -13.17894425	  -1892.79516523	  -4800.85729219	    150.32297717	   -122.61178742	   2531.02179980	     26.40275330	     18.35800874	      9.89331513	      5.00011539	    -45.00000000	    -40.60228867	     45.00000000	    -31.76386221	   1528.82697490	  -3338.95781410	    137.46019801	    159.78114223	   1449.45302055	     23.17900302	      7.34491572	    -19.36576043
      3.26000000	     38.53554134	     13.00659033	     12.86150305	   -118.21078388	    782.93819873	      3.90114159	     12.42738355	     39.84478923	     45.00000000	     39.67980077	    -12.45180088	  -1893.04127613	  -4800.77832068	    150.38393555	   -122.46304685	   2531.06077095	     26.38228666	     18.40892574	      9.82302933	      4.96674464	    -45.00000000	    -40.84085781	     45.00000000	    -31.17590727	   1529.18355577	  -3338.82315124	    137.31173948	    159.59167569	   1449.63520904	     23.12951349	      7.23773794	    -19.45110403
      3.27000000	     38.64646915	     12.92791270	     12.70044827	   -120.28117381	    784.11360823	      3.80907359	     12.30475272	     40.26510156	     45.00000000	     39.89262219	    -12.37795036	  -1893.16581889	  -4800.73363991	    150.31538922	   -122.44950529	   2531.21137873	     26.28620437	     18.42211313	      9.66219310	      5.05294915	    -45.00000000	    -40.90960222	     45.00000000	    -30.86929966	   1529.38711138	  -3338.82237354	    137.44060544	    159.49791813	   1449.73415774	     23.07862473	      7.17013818	    -19.48931458
      3.28000000	     38.95014479	     14.00763279	     14.40694465	   -122.39680066	    785.32483550	      3.71683700	     13.97896899	     41.06212137	     45.00000000	     41.01308840	    -16.10973918	  -1892.24253614	  -4800.39801603	    149.85517408	   -124.30014793	   2531.28382025	     25.67939292	     18.44909807	      9.62603927	      5.21424347	    -45.00000000	    -38.93782373	     45.00000000	    -34.70946575	   1528.78361648	  -3338.16344168	    137.25271727	    159.78719569	   1449.79286309	     22.75938750	      7.04418095	    -19.47461445
      3.29000000	     39.01722814	     13.59580636	     13.69561499	   -124.54527113	    786.57544055	      3.62533369	     13.20399102	     41.27753700	     45.00000000	     40.98171182	    -15.14493700	  -1892.54562686	  -4800.32183791	    149.89503368	   -124.15477911	   2531.41090307	     25.63551535	     18.47407654	      9.53392497	      5.05450584	    -45.00000000	    -39.53848760	     45.00000000	    -33.38653779	   1529.11569299	  -3338.24019822	    137.39100973	    159.99535986	   1449.84268067	     22.67285768	      7.06699365	    -19.53592609
      3.30000000	     39.08701011	     13.36648925	     13.36355706	   -126.72078061	    787.85645867	      3.53603563	     12.95286904	     40.93777020	     45.00000000	     41.00673263	    -14.52387127	  -1892.78383974	  -4800.22891537	    149.95613048	   -124.11764368	   2531.47522699	     25.57088293	     18.53393220	      9.47801284	      4.99159438	    -45.00000000	    -39.71270592	     45.00000000	    -32.81186740	   1529.51127020	  -3338.23971661	    137.39106819	    159.95675053	   1449.95666901	     22.56561175	      6.94012453	    -19.58697578
